<svg width="116" height="37" viewBox="0 0 116 37" fill="none" xmlns="http://www.w3.org/2000/svg">
<rect width="116" height="37" rx="4.14281" fill="white"/>
<path d="M35.8835 26.1113V25.6387H39.2814V26.1113H37.8591V29.8132H37.3454V26.1113H35.8835Z" fill="black"/>
<path d="M41.4939 25.6387V27.3715C41.731 26.9777 42.1261 26.8595 42.5212 26.8595C43.3509 26.8595 43.746 27.4109 43.746 28.2379V29.8526H43.2719V28.2379C43.2719 27.6472 42.9558 27.3321 42.4421 27.3321C41.889 27.3321 41.4939 27.7653 41.4939 28.2773V29.8526H41.0198V25.6781L41.4939 25.6387Z" fill="black"/>
<path d="M48.4478 29.3411C48.1317 29.6956 47.6181 29.8531 47.1835 29.8531C46.2747 29.8531 45.6426 29.2623 45.6426 28.3172C45.6426 27.4114 46.2747 26.7812 47.1835 26.7812C48.0922 26.7812 48.7639 27.3326 48.6454 28.5141H46.1167C46.1562 29.0654 46.6303 29.3805 47.1835 29.3805C47.4996 29.3805 47.9342 29.2623 48.1317 29.0261L48.4478 29.3411ZM48.1712 28.1203C48.1317 27.5295 47.7366 27.2538 47.1835 27.2538C46.6698 27.2538 46.2352 27.5689 46.1167 28.1203H48.1712Z" fill="black"/>
<path d="M53.7025 25.6387L56.2707 28.8287V25.6387H56.7843V29.8132H56.4287L53.8606 26.6232V29.8132H53.3469V25.6387H53.7025Z" fill="black"/>
<path d="M61.5652 29.3411C61.2492 29.6956 60.7355 29.8531 60.3009 29.8531C59.3922 29.8531 58.76 29.2623 58.76 28.3172C58.76 27.4114 59.3922 26.7812 60.3009 26.7812C61.2096 26.7812 61.8813 27.3326 61.7628 28.5141H59.2341C59.2736 29.0654 59.7478 29.3805 60.3009 29.3805C60.617 29.3805 61.0516 29.2623 61.2492 29.0261L61.5652 29.3411ZM61.2887 28.1203C61.2492 27.5295 60.854 27.2538 60.3009 27.2538C59.7873 27.2538 59.3527 27.5689 59.2341 28.1203H61.2887Z" fill="black"/>
<path d="M64.2914 28.3182L63.3036 26.9004H63.8568L64.6075 28.0031L65.3582 26.9004H65.9113L64.9236 28.3182L65.9903 29.8147H65.4372L64.6075 28.6332L63.7778 29.8147H63.2246L64.2914 28.3182Z" fill="black"/>
<path d="M68.5584 26.8999H69.4672V27.3331H68.5584V28.9084C68.5584 29.2629 68.677 29.4598 69.0326 29.4598C69.1511 29.4598 69.3091 29.4204 69.4277 29.3417L69.5857 29.7355C69.3881 29.8142 69.1906 29.8536 68.993 29.893C68.3609 29.893 68.0448 29.5386 68.0448 28.8691V27.2938H67.4521V26.8606H68.0448V26.0335L68.5189 25.9941V26.8999H68.5584Z" fill="black"/>
<path d="M75.9865 25.6387L77.883 29.8132H77.3299L76.9348 28.9074H74.5247L74.1296 29.8132H73.5764L75.4729 25.6387H75.9865ZM75.71 26.19L74.7222 28.4348H76.6977L75.71 26.19Z" fill="black"/>
<path d="M79.6213 26.8991H80.0955L80.135 27.4504C80.372 27.0566 80.8066 26.8203 81.2808 26.8203C82.15 26.8203 82.7426 27.4504 82.7426 28.3562C82.7426 29.3014 82.1105 29.8921 81.2413 29.8921C80.8066 29.8921 80.372 29.6952 80.135 29.3014V31.2312H79.6608V26.8991H79.6213ZM82.229 28.3562C82.229 27.6867 81.7944 27.2929 81.2017 27.2929C80.5696 27.2929 80.1745 27.7655 80.1745 28.3562C80.1745 28.947 80.6091 29.4196 81.2017 29.4196C81.7944 29.4196 82.229 29.0257 82.229 28.3562Z" fill="black"/>
<path d="M84.6392 26.8991H85.1133L85.1528 27.4504C85.3899 27.0566 85.8245 26.8203 86.2986 26.8203C87.1678 26.8203 87.7605 27.4504 87.7605 28.3562C87.7605 29.3014 87.1283 29.8921 86.2591 29.8921C85.8245 29.8921 85.3899 29.6952 85.1528 29.3014V31.2312H84.6392V26.8991ZM87.2468 28.3562C87.2468 27.6867 86.8122 27.2929 86.2196 27.2929C85.5874 27.2929 85.1923 27.7655 85.1923 28.3562C85.1923 28.947 85.6269 29.4196 86.2196 29.4196C86.8122 29.4196 87.2468 29.0257 87.2468 28.3562Z" fill="black"/>
<path d="M90.1707 29.8132H89.6965V25.6387H90.1707V29.8132Z" fill="black"/>
<path d="M92.8968 25.9929C92.8968 26.4261 92.2646 26.4261 92.2646 25.9929C92.2251 25.5597 92.8968 25.5597 92.8968 25.9929ZM92.3041 29.813H92.7783V26.8593H92.3041V29.813Z" fill="black"/>
<path d="M97.5589 29.3411C97.2428 29.6956 96.7292 29.8531 96.2946 29.8531C95.3858 29.8531 94.7537 29.2623 94.7537 28.3172C94.7537 27.4114 95.3858 26.7812 96.2946 26.7812C97.2033 26.7812 97.875 27.3326 97.7564 28.5141H95.2278C95.2673 29.0654 95.7414 29.3805 96.2946 29.3805C96.6106 29.3805 97.0453 29.2623 97.2428 29.0261L97.5589 29.3411ZM97.2428 28.1203C97.2033 27.5295 96.8082 27.2538 96.255 27.2538C95.7414 27.2538 95.3068 27.5689 95.1883 28.1203H97.2428Z" fill="black"/>
<path d="M102.498 25.639V29.8135H102.024L101.984 29.2622C101.747 29.656 101.312 29.8529 100.878 29.8529C100.048 29.8529 99.3765 29.3016 99.3765 28.317C99.3765 27.3324 100.048 26.7811 100.878 26.7811C101.312 26.7811 101.787 26.978 101.984 27.3718V25.5996L102.498 25.639ZM100.957 27.2931C100.364 27.2931 99.9296 27.6869 99.9296 28.3564C99.9296 29.0259 100.404 29.4197 100.957 29.4197C101.55 29.4197 102.024 28.9865 102.024 28.3564C102.024 27.7263 101.55 27.2931 100.957 27.2931Z" fill="black"/>
<path d="M46.3144 9.33131L42.2054 15.0024H41.8103L37.7802 9.33131V18.5468H35.8442V6.53516C36.5949 6.53516 37.3061 6.53516 38.0963 6.53516L42.0473 12.1669L45.9984 6.53516H48.2504V18.5468H46.3144V9.33131Z" fill="black"/>
<path d="M50.8977 22.4475V10.0814H52.5571L52.6757 11.4597C53.3473 10.4358 54.5326 9.92383 55.6784 9.92383C58.2071 9.92383 59.9455 11.7748 59.9455 14.3347C59.9455 16.8945 58.2861 18.7455 55.6784 18.7455C54.6512 18.7455 53.3078 18.3517 52.6757 17.3277V22.4868H50.8977V22.4475ZM58.1676 14.2953C58.1676 12.72 57.1008 11.6173 55.4809 11.6173C53.861 11.6173 52.8337 12.7988 52.8337 14.2953C52.8337 15.7918 53.94 16.9733 55.4809 16.9733C57.0218 17.0127 58.1676 15.8706 58.1676 14.2953Z" fill="black"/>
<path d="M63.5802 6.53516V11.3398C64.3309 10.3159 65.3187 9.96143 66.3459 9.96143C68.7165 9.96143 69.8228 11.5367 69.8228 13.9784V18.5468H68.0449V13.9784C68.0449 12.4031 67.2152 11.6155 65.9113 11.6155C64.5285 11.6155 63.5802 12.7576 63.5802 14.136V18.5468H61.8022V6.53516H63.5802Z" fill="black"/>
<path d="M78.95 10.0797H80.6885C80.6885 12.8759 80.6885 15.7114 80.6885 18.547H78.9895L78.9105 17.1686C78.3574 18.2319 77.0535 18.7439 75.9868 18.7439C73.4976 18.7439 71.6406 17.1686 71.6406 14.2937C71.6406 11.4581 73.5766 9.88281 76.0263 9.88281C77.2116 9.88281 78.3969 10.4342 78.9105 11.4187L78.95 10.0797ZM73.3791 14.2937C73.3791 16.0265 74.6039 17.0898 76.1448 17.0898C79.8192 17.0898 79.8192 11.4975 76.1448 11.4975C74.6039 11.4975 73.3791 12.5608 73.3791 14.2937Z" fill="black"/>
<path d="M88.4718 12.1283C87.8001 11.4981 87.0889 11.3406 86.2197 11.3406C85.1529 11.3406 84.4022 11.695 84.4022 12.3646C84.4022 13.0734 85.1529 13.3491 86.2592 13.4279C87.8396 13.546 89.8546 13.9005 89.8546 16.0665C89.8546 17.6418 88.4323 18.7445 86.2592 18.7445C84.8764 18.7445 83.4935 18.4295 82.3872 17.1692L83.2959 15.909C84.0861 16.7754 85.2715 17.1298 86.2592 17.1692C87.0889 17.1692 88.0372 16.8542 88.0767 16.0665C88.0767 15.3182 87.3655 15.0032 86.1012 14.885C84.5208 14.7275 82.6638 14.2155 82.6638 12.3646C82.6638 10.5136 84.5998 9.80469 86.1802 9.80469C87.484 9.80469 88.5113 10.0804 89.4595 10.9468L88.4718 12.1283Z" fill="black"/>
<path d="M93.6476 7.59872C93.6476 9.05588 91.4351 9.05588 91.4351 7.59872C91.4351 6.14157 93.6476 6.14157 93.6476 7.59872ZM91.6326 10.0404V18.5077H93.4106V10.0404H91.6326Z" fill="black"/>
<path d="M101.234 12.1283C100.562 11.4981 99.8509 11.3406 98.9817 11.3406C97.9149 11.3406 97.1642 11.695 97.1642 12.3646C97.1642 13.0734 97.9149 13.3491 99.0212 13.4279C100.602 13.546 102.617 13.9005 102.617 16.0665C102.617 17.6418 101.194 18.7445 99.0212 18.7445C97.6383 18.7445 96.2555 18.4295 95.1492 17.1692L96.0579 15.909C96.8481 16.7754 98.0334 17.1298 99.0212 17.1692C99.8509 17.1692 100.799 16.8542 100.839 16.0665C100.839 15.3182 100.127 15.0032 98.8631 14.885C97.2827 14.7275 95.4257 14.2155 95.4257 12.3646C95.4257 10.5136 97.3617 9.80469 98.9422 9.80469C100.246 9.80469 101.273 10.0804 102.221 10.9468L101.234 12.1283Z" fill="black"/>
<path d="M28.6137 12.7575L20.0795 3.89648C18.3806 5.55055 18.3015 8.22856 19.961 9.96139L25.6505 15.8688" fill="url(#paint0_linear_974_909)"/>
<path opacity="0.64" d="M26.5987 10.6699L28.6137 12.7572L25.6505 15.8684L23.5959 13.7024C24.5837 12.6784 25.611 11.6545 26.5987 10.6699Z" fill="url(#paint1_linear_974_909)"/>
<path d="M20.6722 20.9888L28.6138 12.7578C30.3522 14.5694 30.3127 17.5231 28.5348 19.2953L23.7935 24.0212C22.9243 24.8876 21.5414 24.8876 20.7117 24.0212C19.882 23.1942 19.8425 21.8552 20.6722 20.9888Z" fill="#D60158"/>
<path d="M13.0071 25.6343L20.8696 33.8259C22.5686 32.1718 22.6476 29.4938 20.9881 27.761L16.0099 22.5625" fill="url(#paint2_linear_974_909)"/>
<path opacity="0.64" d="M15.0221 27.761L13.0071 25.6737L15.9703 22.5625L18.0249 24.7285C17.0766 25.7525 16.0494 26.737 15.0221 27.761Z" fill="url(#paint3_linear_974_909)"/>
<path d="M13.0861 19.0981L18.3014 13.8996C19.1311 13.0725 20.514 13.0725 21.3832 13.8996C22.2129 14.7266 22.2525 16.0656 21.4227 16.932L13.0071 25.6749C11.2686 23.824 11.3081 20.8703 13.0861 19.0981Z" fill="url(#paint4_linear_974_909)"/>
<defs>
<linearGradient id="paint0_linear_974_909" x1="28.6202" y1="9.87518" x2="18.7491" y2="9.87518" gradientUnits="userSpaceOnUse">
<stop stop-color="#974E98"/>
<stop offset="0.1862" stop-color="#A3458F"/>
<stop offset="0.5455" stop-color="#BD2879"/>
<stop offset="0.6917" stop-color="#C70C6F"/>
</linearGradient>
<linearGradient id="paint1_linear_974_909" x1="25.5464" y1="12.6711" x2="27.6641" y2="14.7956" gradientUnits="userSpaceOnUse">
<stop stop-color="white" stop-opacity="0"/>
<stop offset="0.2437" stop-color="#C0C0C0" stop-opacity="0.2437"/>
<stop offset="1"/>
</linearGradient>
<linearGradient id="paint2_linear_974_909" x1="13.0224" y1="28.1912" x2="22.1994" y2="28.1912" gradientUnits="userSpaceOnUse">
<stop stop-color="#179BD6"/>
<stop offset="0.8475" stop-color="#ADCA32"/>
</linearGradient>
<linearGradient id="paint3_linear_974_909" x1="16.0965" y1="25.74" x2="13.979" y2="23.6155" gradientUnits="userSpaceOnUse">
<stop stop-color="white" stop-opacity="0"/>
<stop offset="0.2437" stop-color="#C0C0C0" stop-opacity="0.2437"/>
<stop offset="1"/>
</linearGradient>
<linearGradient id="paint4_linear_974_909" x1="10.5952" y1="24.8345" x2="22.9968" y2="12.3928" gradientUnits="userSpaceOnUse">
<stop stop-color="#B8E1F2"/>
<stop offset="1" stop-color="#179BD6"/>
</linearGradient>
</defs>
</svg>
