<svg width="112" height="36" viewBox="0 0 112 36" fill="none" xmlns="http://www.w3.org/2000/svg">
<rect width="111.474" height="35.9787" rx="4.62434" fill="white"/>
<path d="M48.5036 10.9004C47.0091 10.9004 45.9225 11.2554 44.9992 12.0743L43.3689 13.4937C43.233 13.6032 42.9612 13.685 42.7714 13.5208C42.581 13.3571 42.554 13.1387 42.7169 12.9203L43.5862 11.6098C43.7221 11.4185 43.6138 11.173 43.3689 11.173H41.277C41.0327 11.173 40.8423 11.3643 40.8423 11.6098V24.3872C40.8423 24.6327 41.0327 24.8241 41.277 24.8241H43.4503C43.6946 24.8241 43.885 24.6327 43.885 24.3872V17.1796C43.885 13.8763 46.629 13.3577 47.6612 13.3577C49.8615 13.3577 50.6494 14.9413 50.6494 16.1423V24.3872C50.6494 24.6327 50.8398 24.8241 51.0841 24.8241H53.2574C53.5017 24.8241 53.6921 24.6327 53.6921 24.3872V15.8691C53.6921 12.8114 51.7086 10.9004 48.503 10.9004H48.5036Z" fill="black"/>
<path d="M62.548 10.8457C58.3372 10.8457 55.6477 13.4396 55.6477 16.9613V18.8999C55.6477 22.6129 58.3372 25.152 62.548 25.152C66.2697 25.152 68.8777 23.2134 69.1496 20.5924C69.1771 20.3193 68.9867 20.1285 68.7149 20.1285H66.596C66.4056 20.1285 66.2427 20.238 66.1883 20.4288C65.9165 21.3024 64.64 22.6129 62.548 22.6129C60.4561 22.6129 58.5 21.084 58.527 18.8999L58.5545 16.4703C58.5815 14.6411 60.4836 13.3854 62.548 13.3854C64.4226 13.3854 66.2427 14.4504 66.4326 16.1977C66.4483 16.3997 66.3101 16.582 66.1119 16.6204L60.0208 17.8084C59.7765 17.8631 59.5862 18.0815 59.5862 18.3541V18.3812C59.5862 18.6267 59.8305 18.8451 60.1837 18.8451H68.9317C69.172 18.8451 69.3663 18.6493 69.3663 18.4083V16.6887C69.3663 13.4401 66.5679 10.8463 62.5475 10.8463L62.548 10.8457Z" fill="black"/>
<path d="M77.7065 10.8463C74.3105 10.8463 71.3767 12.8391 71.3767 15.46C71.3767 15.6784 71.5671 15.8421 71.8114 15.8421H74.0117C74.2291 15.8421 74.3919 15.6784 74.4194 15.46C74.6368 14.259 76.0767 13.3854 77.625 13.3854C79.4721 13.3854 80.7222 14.5322 80.7222 16.4979V18.8734C80.7222 21.303 78.929 22.5316 76.7012 22.5316C74.9625 22.5316 73.9572 21.8764 73.9572 20.8114C73.9572 19.883 74.4464 19.0912 76.4563 18.6273L79.3632 17.8355C79.6619 17.7536 79.7709 17.5076 79.7164 17.235C79.6894 17.0166 79.4451 16.9071 79.2272 16.9071H76.2121C73.6585 16.9071 71.0774 18.5449 71.0774 20.9474V21.3295C71.0774 23.7868 73.3867 25.0696 76.0217 25.0696C77.7059 25.0696 79.1458 24.4144 80.0421 23.6502L81.3737 22.5034C81.591 22.3121 81.8083 22.3121 81.9982 22.5034C82.161 22.6671 82.1065 22.9131 81.9706 23.1039L81.1558 24.3873C81.0199 24.5786 81.1282 24.8241 81.3731 24.8241H83.3291C83.5734 24.8241 83.7638 24.6328 83.7638 24.3873V16.1147C83.7638 12.948 81.509 10.8457 77.7053 10.8457L77.7065 10.8463Z" fill="black"/>
<path d="M95.4999 11.1738H92.4572C91.398 11.1738 90.3653 11.8291 89.6318 12.4572L88.4367 13.4945C88.3008 13.604 88.056 13.6859 87.8931 13.5493C87.7027 13.4127 87.6213 13.1395 87.7847 12.9211L88.6541 11.6107C88.79 11.4193 88.6816 11.1738 88.4367 11.1738H86.3993C86.155 11.1738 85.9646 11.3652 85.9646 11.6107V24.3881C85.9646 24.6336 86.155 24.8249 86.3993 24.8249H88.6271C88.8714 24.8249 89.0618 24.6336 89.0618 24.3881V17.8357C89.0618 15.0234 90.203 13.7677 92.6751 13.7677H95.5005C95.7448 13.7677 95.9351 13.5764 95.9351 13.3309V11.6107C95.9351 11.3652 95.7448 11.1738 95.5005 11.1738H95.4999Z" fill="black"/>
<path d="M32.6773 8.0957C31.9473 8.0957 31.2694 8.47609 30.887 9.10142L26.7666 15.2491C26.6323 15.4518 26.6868 15.7249 26.8884 15.8598C27.0519 15.9693 27.2681 15.9557 27.4169 15.8271L31.4727 12.2918C31.5401 12.2309 31.644 12.2371 31.7047 12.3048C31.7322 12.3358 31.7468 12.3759 31.7468 12.4171V23.4856C31.7468 23.577 31.6732 23.6504 31.5822 23.6504C31.5334 23.6504 31.4873 23.629 31.4564 23.5912L19.1963 8.84293C18.797 8.36942 18.2107 8.09627 17.5935 8.0957H17.165C16.0053 8.0957 15.0652 9.04047 15.0652 10.2059V25.795C15.0652 26.9605 16.0053 27.9052 17.165 27.9052C17.8951 27.9052 18.5729 27.5248 18.9553 26.8995L23.0758 20.7518C23.21 20.5492 23.1555 20.276 22.9539 20.1411C22.7905 20.0316 22.5743 20.0452 22.4254 20.1739L18.3696 23.7091C18.3022 23.7701 18.1983 23.7639 18.1377 23.6961C18.1101 23.6651 18.0955 23.625 18.0961 23.5838V12.5125C18.0961 12.4211 18.1697 12.3477 18.2607 12.3477C18.309 12.3477 18.3556 12.3691 18.3865 12.407L30.6449 27.158C31.0442 27.6315 31.6305 27.9047 32.2477 27.9052H32.6762C33.8359 27.9058 34.7766 26.9616 34.7777 25.7962V10.2059C34.7777 9.04047 33.8376 8.0957 32.6779 8.0957H32.6773Z" fill="black"/>
</svg>
